<svg xmlns="http://www.w3.org/2000/svg" width="26" height="26" viewBox="0 0 26 26"><defs><style>.a{fill:none;stroke:#3b3a3b;stroke-miterlimit:10;}</style></defs><path class="a" d="M30.911,23.6c.05-.165.086-.331.128-.5s.091-.329.126-.5c0-.015,0-.031.008-.048s.008-.031.011-.047c.033-.17.05-.339.075-.51.01-.067.023-.135.031-.2l1.622-.176v-1.68l-1.554-.155c-.008-.14-.01-.281-.023-.421l0-.025c-.017-.171-.048-.339-.072-.508s-.042-.34-.075-.51c0-.015-.008-.031-.011-.047s-.005-.032-.008-.048c-.034-.169-.083-.332-.126-.5-.017-.067-.031-.133-.048-.2l1.431-.783-.643-1.552-1.5.452c-.061-.127-.116-.257-.183-.382l-.007-.011-.006-.01c-.08-.15-.173-.293-.26-.439s-.17-.3-.266-.445c-.009-.013-.02-.026-.029-.039s-.016-.028-.026-.041c-.1-.143-.2-.275-.307-.413-.041-.055-.08-.111-.121-.166L30.1,12.426l-1.188-1.189-1.208.99c-.105-.094-.206-.192-.315-.282l-.019-.015c-.133-.109-.274-.207-.412-.309s-.269-.211-.413-.307c-.013-.01-.028-.017-.041-.026l-.039-.029c-.146-.1-.3-.177-.445-.266-.058-.034-.113-.071-.172-.1l.458-1.566-1.552-.642-.737,1.377c-.133-.047-.263-.1-.4-.14L23.6,9.913c-.165-.05-.331-.086-.5-.128s-.329-.091-.5-.126l-.048-.008-.047-.011c-.17-.033-.339-.05-.509-.075-.068-.01-.135-.023-.2-.031l-.176-1.622h-1.68l-.155,1.554c-.14.008-.281.01-.421.023l-.025,0c-.171.017-.339.048-.509.072s-.339.042-.509.075l-.047.011-.048.008c-.169.034-.332.084-.5.126-.067.017-.134.031-.2.048L16.743,8.4l-1.552.643.452,1.5c-.127.061-.257.116-.382.183l-.019.012h0c-.151.081-.295.173-.442.261s-.3.168-.443.264c-.014.009-.026.02-.04.029s-.028.016-.041.026c-.143.1-.275.2-.413.307-.055.041-.111.08-.166.121L12.426,10.72l-1.189,1.188.99,1.208c-.094.105-.192.206-.282.315l-.015.019c-.109.133-.207.274-.309.412s-.211.269-.307.413c-.01.013-.017.028-.026.041s-.02.026-.029.04c-.1.144-.176.295-.264.442-.035.059-.072.116-.106.175l-1.565-.458-.643,1.552,1.377.737c-.047.133-.1.263-.14.4l-.006.024c-.05.165-.086.332-.128.5s-.091.329-.126.5c0,.016,0,.032-.007.048s-.009.031-.012.047c-.033.17-.05.339-.075.51-.01.067-.023.135-.031.2l-1.622.176v1.68l1.554.155c.008.14.01.281.023.422l0,.023h0c.017.17.048.339.072.508s.042.34.075.51c0,.015.008.031.012.047s0,.032.007.048c.034.17.084.333.126.5.017.067.031.134.049.2L8.4,24.081l.643,1.552,1.5-.452c.061.127.116.256.183.381l.012.021c.081.151.173.3.261.443s.169.3.264.442c.009.014.02.026.029.04s.016.028.026.041c.1.143.2.275.307.413.041.055.08.111.121.166L10.72,28.4l1.188,1.189,1.208-.99c.105.094.206.192.315.282l.02.015c.133.109.274.207.411.309s.269.211.413.307c.013.01.028.017.041.026s.026.02.04.029c.144.1.295.176.443.264.059.035.116.072.174.106L14.515,31.5l1.552.643.737-1.377c.133.047.263.1.4.14l.024.006c.165.05.331.086.5.128s.329.091.5.126c.016,0,.032,0,.048.007l.047.012c.17.033.339.05.509.075.068.01.135.023.2.031l.176,1.622h1.68l.155-1.554c.14-.008.281-.01.421-.023l.025,0c.171-.018.339-.048.509-.072s.339-.042.509-.075l.047-.012.048-.007c.169-.034.332-.084.5-.126.067-.017.134-.031.2-.049l.783,1.432,1.552-.643-.452-1.5c.127-.061.257-.116.382-.183l.019-.012h0c.15-.081.293-.173.439-.26s.3-.17.445-.266l.039-.029c.013-.009.028-.016.041-.026.143-.1.275-.2.413-.307.055-.041.111-.08.166-.121L28.4,30.1l1.189-1.188-.99-1.208c.094-.105.192-.206.282-.315l.015-.02c.109-.133.207-.274.309-.411s.211-.269.307-.413c.01-.013.017-.028.026-.041s.02-.026.029-.039c.1-.146.177-.3.266-.445.034-.058.071-.114.1-.172l1.566.458.642-1.552-1.377-.737c.047-.133.1-.263.14-.4Zm-10.5.685a3.871,3.871,0,1,1,3.871-3.87A3.871,3.871,0,0,1,20.412,24.282Z" transform="translate(-7.412 -7.412)"/></svg>