<svg xmlns="http://www.w3.org/2000/svg" width="212" height="37" viewBox="0 0 212 37">
  <g id="グループ_754" data-name="グループ 754" transform="translate(-1604 -3557)">
    <g id="合体_2" data-name="合体 2" transform="translate(1604 3557)" fill="#fff">
      <path d="M 195.5021514892578 36.5 L 0.5 36.5 L 0.5 0.5 L 195.5021514892578 0.5 L 195.5021514892578 0.5456578731536865 L 195.5021514892578 0.7361052632331848 L 195.6288452148438 0.8782894611358643 L 211.3303070068359 18.5 L 195.6288452148438 36.12171173095703 L 195.5021514892578 36.26389312744141 L 195.5021514892578 36.45434188842773 L 195.5021514892578 36.5 Z" stroke="none"/>
      <path d="M 195.0676422119141 36 L 195.2555541992188 35.78911209106445 L 210.6606292724609 18.5 L 195.2555541992188 1.210888862609863 L 195.0676422119141 1 L 1 1 L 1 36 L 195.0676422119141 36 M 196.0021667480469 37 L 195.5159759521484 37 L 0 37 L 0 0 L 196.0021667480469 0 L 196.0021667480469 0.5456388592720032 L 212 18.5 L 196.0021667480469 36.45436096191406 L 196.0021667480469 37 Z" stroke="none" fill="#e8e8e8"/>
    </g>
    <text id="画像_タイトル" data-name="画像・タイトル" transform="translate(1704 3581)" fill="#bebebe" font-size="17" font-family="HiraKakuProN-W6, Hiragino Kaku Gothic ProN"><tspan x="-59.245" y="0">画像・タイトル</tspan></text>
  </g>
</svg>
