<svg xmlns="http://www.w3.org/2000/svg" width="25.521" height="26.51" viewBox="0 0 25.521 26.51">
  <g id="グループ_100" data-name="グループ 100" transform="translate(-12.596 -12.65)">
    <path id="パス_30" data-name="パス 30" d="M19.155,27.312s4.878-4.758,8.359-7.883a47.084,47.084,0,0,1,7.438-5.664c.8-.375,3.375-1.031,1.969,1.64S25.39,30.218,23,30.874" transform="translate(0.035)" fill="none" stroke="#4b4b4b" stroke-linecap="round" stroke-linejoin="round" stroke-width="1.5"/>
    <path id="パス_31" data-name="パス 31" d="M19.155,27.312,23,30.874S22.905,33.64,21.64,34.2s-4.735,1.36-5.016,2.156-.844,2.016-.844,2.016-2.765-3.984-2.39-6.281a4.7,4.7,0,0,1,3.14-4.078A11.536,11.536,0,0,1,19.155,27.312Z" transform="translate(0 0.037)" fill="none" stroke="#4b4b4b" stroke-linecap="round" stroke-linejoin="round" stroke-width="1.5"/>
    <line id="線_105" data-name="線 105" x2="3.637" y2="3.178" transform="translate(22.855 24.911)" fill="none" stroke="#4b4b4b" stroke-linecap="round" stroke-linejoin="round" stroke-width="1.5"/>
  </g>
</svg>
