<svg xmlns="http://www.w3.org/2000/svg" width="26.5" height="23.176" viewBox="0 0 26.5 23.176">
  <g id="グループ_103" data-name="グループ 103" transform="translate(-9.711 -11.644)">
    <g id="レイヤー_7" data-name="レイヤー 7" transform="translate(10.461 12.394)">
      <path id="パス_33" data-name="パス 33" d="M34.548,12.394H11.374a.916.916,0,0,0-.913.914V28.176a.916.916,0,0,0,.913.914H28.565S30.788,34.07,34.9,34.07c-1.7-.4-1.922-4.981-1.922-4.981h1.573a.916.916,0,0,0,.913-.914V13.308A.916.916,0,0,0,34.548,12.394Z" transform="translate(-10.461 -12.394)" fill="none" stroke="#4b4b4b" stroke-linecap="round" stroke-linejoin="round" stroke-width="1.5"/>
    </g>
    <g id="レイヤー_12" data-name="レイヤー 12" transform="translate(17.519 15.096)">
      <g id="グループ_102" data-name="グループ 102">
        <path id="パス_34" data-name="パス 34" d="M21.745,21.834s3.361-3.574,4.383-4.319a30.29,30.29,0,0,1,2.787-1.83c.362-.17,1.532-.468.894.745s-5.234,6.723-6.319,7.021" transform="translate(-19.112 -15.525)" fill="none" stroke="#4b4b4b" stroke-linecap="round" stroke-linejoin="round" stroke-width="1"/>
        <path id="パス_35" data-name="パス 35" d="M21.327,22.837l1.745,1.617s-.043,1.255-.617,1.511-2.149.617-2.277.978-.383.915-.383.915-1.255-1.809-1.085-2.851a2.134,2.134,0,0,1,1.425-1.851A5.234,5.234,0,0,1,21.327,22.837Z" transform="translate(-18.694 -16.528)" fill="none" stroke="#4b4b4b" stroke-linecap="round" stroke-linejoin="round" stroke-width="1"/>
        <line id="線_111" data-name="線 111" x2="1.886" y2="1.844" transform="translate(4.069 4.81)" fill="none" stroke="#4b4b4b" stroke-linecap="round" stroke-linejoin="round" stroke-width="1"/>
      </g>
    </g>
  </g>
</svg>
